<?xml version="1.0" ?><!DOCTYPE svg  PUBLIC '-//W3C//DTD SVG 1.0//EN'  'http://www.w3.org/TR/2001/REC-SVG-20010904/DTD/svg10.dtd'><svg height="116px" style="shape-rendering:geometricPrecision; text-rendering:geometricPrecision; image-rendering:optimizeQuality; fill-rule:evenodd; clip-rule:evenodd" version="1.0" viewBox="0 0 19834 22091" width="104px" xml:space="preserve" xmlns="http://www.w3.org/2000/svg" xmlns:xlink="http://www.w3.org/1999/xlink"><defs><style type="text/css">
   <![CDATA[
    .fil0 {fill:rgba(0, 204, 204, 0.1)}
   ]]>
  </style></defs><g id="Layer_x0020_1"><path class="fil0" d="M1452 3900l16930 0c799,0 1452,725 1452,1611l0 4352c0,886 -653,1611 -1452,1611l-6641 0 -3648 0 -6641 0c-799,0 -1452,-725 -1452,-1611l0 -4352c0,-886 653,-1611 1452,-1611zm17563 8461l0 7341c0,1313 -1029,2389 -2287,2389l-13622 0c-1258,0 -2287,-1076 -2287,-2389l0 -7341 7074 0 0 3188 2024 1330 2024 -1330 0 -3188 7074 0zm-10413 0l0 2805 1315 864 1315 -864 0 -2805 -2630 0zm-2210 -12361l7050 0c655,0 1191,536 1191,1191l0 1858 -1510 0 0 -1098c0,-296 -242,-539 -538,-539l-5336 0c-296,0 -538,243 -538,539l0 1098 -1510 0 0 -1858c0,-655 536,-1191 1191,-1191z"/></g></svg>